<?xml version="1.0" encoding="utf-8"?>
<!-- Generator: Adobe Illustrator 19.0.0, SVG Export Plug-In . SVG Version: 6.00 Build 0)  -->
<svg version="1.1" id="Layer_1" xmlns="http://www.w3.org/2000/svg" xmlns:xlink="http://www.w3.org/1999/xlink" x="0px" y="0px"
	 viewBox="-1756 -410 1544 2184" style="enable-background:new -1756 -410 1544 2184;" xml:space="preserve">
<style type="text/css">
	.st0{fill:#84DBFF;}
	.st1{fill:#FFFFFF;}
</style>
<path class="st0" d="M-229.9,999.1c0,419.3-339.8,754.7-754.7,754.7s-754.7-335.4-754.7-754.7S-984.6-364.6-984.6-364.6
	S-229.9,584.3-229.9,999.1z"/>
<path class="st1" d="M-1158.9,1366.6c-140.4,0-256.4-114-256.4-256.4c0-16.3,14.2-30.5,30.5-30.5c16.3,0,30.5,14.2,30.5,30.5
	c0,107.8,87.5,195.4,195.4,195.4c16.3,0,30.5,14.2,30.5,30.5C-1128.3,1352.4-1142.6,1366.6-1158.9,1366.6z"/>
</svg>
