<?xml version="1.0" encoding="utf-8"?>
<!-- Generator: Adobe Illustrator 19.0.0, SVG Export Plug-In . SVG Version: 6.00 Build 0)  -->
<svg version="1.1" id="Livello_1" xmlns="http://www.w3.org/2000/svg" xmlns:xlink="http://www.w3.org/1999/xlink" x="0px" y="0px"
	 viewBox="-130 8.3 580 580" style="enable-background:new -130 8.3 580 580;" xml:space="preserve">
<style type="text/css">
	.st0{fill:#B73921;}
</style>
<path class="st0" d="M112.5,143.1c-0.2-0.9-0.5-1.9-0.8-3c-4.8-19.5-17.4-71.2-55.7-71.2c-8.7,0-18,2.8-27.7,8.5
	C13.2,86,4.6,97.2,2.9,110.5c-3.6,27.6,23.8,54.8,35.4,66.4c1.2,1.2,2.2,2.1,2.9,2.9c23.2,24.3,45,44.6,59.2,57.3
	c7.1,6.3,14,12.3,19.5,16.9c8.5,7,9.5,7.7,12.3,7.7c3.3,0,6.2-2.3,6.9-5.6c0.4-1.8,0.5-2.3-7.5-36.2
	C128.2,206.1,121.3,177.4,112.5,143.1L112.5,143.1z"/>
<path class="st0" d="M97.7,313.4c10.2-3.8,12.4-4.6,13.3-8.5c0.6-2.5-0.2-5.2-2.1-6.9c-1.4-1.3-1.8-1.6-35.1-11.5
	c-13.8-4.1-42.1-12.5-76.2-22c-0.9-0.2-1.9-0.5-3-0.9c-9.8-2.9-28.1-8.2-46.2-8.2c-32.1,0-49.9,17.4-49.9,49.1
	c0,17.3,5.3,30.2,15.7,38.4c8.2,6.4,19.5,9.7,33.5,9.7c16.5,0,33.2-4.5,42.1-6.9c1.6-0.4,2.9-0.8,4-1c32.8-7.9,61.3-16.7,79.5-22.6
	C82.3,318.8,91,315.9,97.7,313.4L97.7,313.4z"/>
<path class="st0" d="M131.8,346.5c-0.7,0-1.5,0.1-2.2,0.3c-1.8,0.6-2.3,0.7-27.5,24.6c-10.5,9.9-31.8,30.2-57.2,55
	c-0.6,0.6-1.4,1.3-2.3,2.2C30,440.7,0.4,469,3.9,497.9c1.6,13.7,10.4,25.3,26.1,34.3c9.5,5.5,18.6,8.3,27.1,8.3
	c36.5,0,49.4-48.5,54.2-66.8c0.4-1.6,0.8-2.9,1.1-3.9c9.5-32.3,16.2-61.4,20.1-80c1.9-9.3,3.7-18.3,4.9-25.4
	c1.8-10.4,2.1-12.3,0.1-15.1C136.1,347.5,134,346.5,131.8,346.5z"/>
<path class="st0" d="M282.7,432c-1.2-1.2-2.2-2.1-2.9-2.9c-23.2-24.3-45-44.6-59.2-57.3c-7.1-6.3-14-12.3-19.5-16.9
	c-8.5-7-9.5-7.7-12.3-7.7c-3.3,0-6.2,2.3-6.9,5.6c-0.4,1.8-0.5,2.3,7.5,36.1c3.3,14,10.2,42.7,19,77c0.2,0.9,0.5,1.9,0.8,3
	c4.8,19.5,17.4,71.2,55.7,71.2c8.7,0,18-2.8,27.7-8.5c15.1-8.7,23.7-19.9,25.4-33.2C321.7,470.8,294.3,443.6,282.7,432z"/>
<path class="st0" d="M405.8,265.3c-8.2-6.4-19.5-9.7-33.5-9.7c-16.5,0-33.1,4.5-42.1,6.9c-1.6,0.4-2.9,0.8-4,1
	c-32.8,7.9-61.3,16.7-79.5,22.7c-9,3-17.7,5.9-24.4,8.4c-10.2,3.8-12.4,4.6-13.3,8.5c-0.6,2.5,0.2,5.2,2.1,6.9
	c1.4,1.3,1.8,1.6,35.1,11.5c13.8,4.1,42.1,12.5,76.2,22c0.9,0.2,1.9,0.5,3,0.9c9.8,2.9,28.1,8.2,46.2,8.2
	c32.1,0,49.9-17.4,49.9-49.1C421.5,286.4,416.2,273.5,405.8,265.3z"/>
<path class="st0" d="M190.9,260.2c0.7,0,1.5-0.1,2.2-0.3c1.8-0.6,2.3-0.7,27.5-24.6c10.5-9.9,31.8-30.2,57.2-55
	c0.6-0.6,1.4-1.3,2.3-2.2c12.6-12.1,42.2-40.4,38.7-69.3c-1.6-13.7-10.4-25.3-26.1-34.3c-9.5-5.5-18.6-8.3-27.1-8.3
	c-36.5,0-49.4,48.5-54.2,66.8c-0.4,1.6-0.8,2.9-1.1,3.9c-9.5,32.3-16.2,61.4-20.1,80c-1.9,9.3-3.7,18.3-4.9,25.4
	c-1.8,10.4-2.1,12.3-0.1,15.1C186.6,259.2,188.7,260.2,190.9,260.2L190.9,260.2z"/>
</svg>
